<?xml version="1.0" standalone="no"?>
<!DOCTYPE svg PUBLIC "-//W3C//DTD SVG 20010904//EN"
 "http://www.w3.org/TR/2001/REC-SVG-20010904/DTD/svg10.dtd">
<svg version="1.0" xmlns="http://www.w3.org/2000/svg"
 width="864.000000pt" height="864.000000pt" viewBox="0 0 864.000000 864.000000"
 preserveAspectRatio="xMidYMid meet">
<metadata>
Created by potrace 1.14, written by Peter Selinger 2001-2017
</metadata>
<g transform="translate(0.000000,864.000000) scale(0.100000,-0.100000)"
fill="#000000" stroke="none">
<path d="M4320 7222 l-2925 -1038 -3 -2903 -2 -2902 22 7 c24 7 843 297 3988
1412 l1855 657 3 2903 c1 1596 -1 2902 -5 2902 -5 -1 -1324 -468 -2933 -1038z
m2340 -1874 c0 -1117 -2 -2029 -4 -2027 -2 2 -358 447 -790 989 l-786 985 2
765 3 765 120 42 c66 24 415 148 775 277 360 129 661 235 668 235 9 1 12 -412
12 -2031z m-3087 -3528 c-6 -5 -525 -189 -1570 -558 -10 -3 -13 447 -13 2230
l0 2235 793 280 792 281 3 -2231 c1 -1227 -1 -2234 -5 -2237z m1677 2675
l1292 -1620 -28 -11 c-99 -39 -1554 -554 -1565 -553 -8 0 -236 282 -506 626
l-493 625 0 1281 c0 704 2 1278 4 1276 2 -2 585 -733 1296 -1624z"/>
</g>
</svg>
