<svg width="116" height="120" viewBox="0 0 116 120" fill="none" xmlns="http://www.w3.org/2000/svg">
<path d="M57.7892 102.569C50.0456 102.593 42.4057 100.788 35.4911 97.3022C35.7063 96.504 35.9886 95.7254 36.3348 94.9747C36.6172 94.419 37.0132 93.9288 37.4971 93.536L37.5195 93.5136C38.0842 93.1007 38.5075 92.5234 38.7316 91.8607C39.1347 90.8185 39.6079 89.8047 40.1478 88.8263C41.6365 86.6167 42.3218 83.9631 42.0891 81.3088C42.086 81.2606 42.0953 81.2123 42.1162 81.1687C42.1372 81.1251 42.169 81.0876 42.2086 81.0599C42.2452 81.0293 42.275 80.9913 42.296 80.9484C42.317 80.9055 42.3288 80.8587 42.3306 80.811L42.4227 80.6816L42.5322 80.5222C43.6447 78.964 44.7971 77.351 45.937 75.5438C46.4327 74.7946 46.8356 73.988 47.1366 73.1417C47.4118 72.6627 47.5895 72.1339 47.6593 71.5859C47.6992 71.3061 47.7574 71.0292 47.8335 70.757C48.4607 69.368 49.1751 67.9392 49.8072 66.6746C50.4394 65.4101 51.1836 63.9166 51.9054 62.3583C51.98 62.4828 52.0497 62.6072 52.1219 62.7416L52.1742 62.8412C52.9433 64.2078 53.6675 65.4947 55.1459 65.4947C55.2649 65.4938 55.3837 65.4863 55.5018 65.4723C55.6487 65.4723 55.793 65.7412 55.9324 65.9976C56.0112 66.1544 56.1081 66.3014 56.2211 66.4357C56.5099 66.8738 56.7936 67.2994 57.0674 67.7176L57.1868 67.8993L57.2565 68.0089C58.2645 69.5497 59.2178 70.9959 60.3054 72.4397C60.7385 72.8703 61.8386 73.8785 62.7047 73.8785C63.4365 73.9789 64.1232 74.2903 64.6809 74.7746C64.8703 75.0637 64.9857 75.395 65.0169 75.7392C65.0482 76.0834 64.9943 76.4301 64.8601 76.7486C64.7522 77.3229 64.5999 77.888 64.4047 78.4388C64.1095 79.202 63.9414 80.0084 63.9069 80.8259C63.9715 83.1995 64.2564 85.562 64.7581 87.8829L64.8701 88.4928C64.9871 89.2047 65.1663 89.9166 65.338 90.6111V90.6534C65.5147 91.3654 65.6989 92.0922 65.8184 92.8091C66.1479 94.9157 65.9452 97.0713 65.2285 99.0795L65.2136 99.1367C64.9896 99.9756 64.7606 100.844 64.6187 101.696C64.5795 101.83 64.5471 101.966 64.5216 102.104C62.2903 102.409 60.0412 102.564 57.7892 102.569V102.569ZM74.8357 99.5823C73.9271 98.7648 73.2087 97.7581 72.731 96.6331C72.2532 95.5081 72.0278 94.292 72.0705 93.0705L72.1924 92.4606L72.7873 89.4735C72.988 88.529 73.0716 87.5634 73.0362 86.5985C73.0362 86.016 73.0088 85.4584 72.9814 84.9307C72.8952 83.9657 72.9136 82.9942 73.0362 82.0332C73.1009 81.0823 73.2179 80.1489 73.3149 79.3175C73.8327 76.7218 73.7372 74.0411 73.0362 71.4888C72.7525 70.7119 72.3897 69.9662 71.9535 69.2634C71.6423 68.7457 71.3647 68.2086 71.1222 67.6554C69.5473 62.9244 67.1094 58.5263 63.9318 54.684C63.4521 53.8853 63.176 52.9809 63.1279 52.0504C63.0806 51.7243 63.0383 51.3957 62.9735 51.0895C62.9735 50.858 63.9119 50.3701 64.1707 50.3701C64.4856 50.5468 64.8378 50.6466 65.1986 50.6614C66.0847 50.6614 66.4431 49.8474 66.5675 49.1678C67.0429 45.6082 67.2818 42.2851 67.5257 38.6185C67.533 38.337 67.4712 38.058 67.3458 37.8059C67.2204 37.5538 67.0353 37.3363 66.8064 37.1722C66.5606 37.1067 66.3305 36.9922 66.13 36.8357C65.9294 36.6791 65.7625 36.4837 65.6392 36.2612C65.4936 35.6162 65.6062 34.9399 65.9528 34.3768L65.9826 34.3096C66.0175 34.2275 66.0523 34.1403 66.0847 34.0607C66.8961 34.4166 67.6801 34.8074 68.4392 35.2032C69.6866 35.8796 70.9828 36.4621 72.3169 36.9457C73.3255 37.3219 74.3854 37.5426 75.4604 37.6004C75.8558 37.6074 76.2491 37.5407 76.6202 37.4037C77.7172 37.0169 78.6934 36.3485 79.4508 35.4656C80.2082 34.5827 80.7204 33.5162 80.936 32.373C81.1724 30.9541 81.4163 29.4979 83.3328 29.0175L83.0839 28.2334L82.9943 27.962C82.8698 27.5953 82.7471 27.2286 82.6259 26.8618C82.4546 26.0912 82.4578 25.292 82.6353 24.5228C82.8127 23.7536 83.1599 23.0337 83.6514 22.416C84.0848 21.8561 84.6393 21.4015 85.2733 21.0864C85.9074 20.7713 86.6045 20.6037 87.3125 20.5964C87.4245 20.5964 87.5365 20.5964 87.6485 20.6163C90.1225 20.5492 92.5874 20.2887 95.0207 19.8372H95.0904C100.46 25.914 104.265 33.2108 106.172 41.0931C108.08 48.9754 108.034 57.2045 106.037 65.0648C104.04 72.925 100.154 80.1784 94.7156 86.1942C89.2774 92.2099 82.452 96.8059 74.8332 99.5823H74.8357ZM29.9582 94.0687C21.1158 88.1085 14.4208 79.466 10.859 69.4139C7.29728 59.3619 7.05712 48.4316 10.1739 38.2328C13.2907 28.034 19.5997 19.1057 28.1718 12.7628C36.7439 6.4199 47.126 2.99763 57.7892 3C58.038 3 58.2869 3 58.5358 3C56.5719 3.75008 54.9677 5.22058 54.0499 7.11207C53.132 9.00356 52.9695 11.1738 53.5953 13.181C53.7225 13.5566 53.7406 13.9605 53.6476 14.3459V14.3758C53.6211 14.5364 53.6053 14.6985 53.6003 14.8612C53.1621 14.5992 52.672 14.4361 52.1642 14.3833C51.7113 14.1841 51.2166 14.0987 50.7231 14.1343C49.6299 14.2077 48.5671 14.5259 47.6133 15.0653C46.6595 15.6048 45.8391 16.3517 45.2127 17.2509C42.9256 20.5356 41.9825 24.5713 42.577 28.5296C42.5919 28.6814 42.6043 28.8258 42.6193 28.9652L42.6342 29.132C42.7313 30.1277 42.7811 30.6106 42.5446 30.8745C42.3082 31.1383 41.6536 31.1632 40.4066 31.1632C38.9755 31.1632 38.4902 31.6486 38.4902 33.0824C38.462 34.734 38.3265 36.382 38.0845 38.0161L38.0123 38.606L37.9601 38.9346L37.9252 39.1835C37.517 41.7499 37.5096 41.7947 40.6481 42.6909C40.0746 42.876 39.5651 43.2193 39.178 43.6812C38.791 44.1432 38.5422 44.705 38.4603 45.3021C38.3451 45.722 38.1953 46.1316 38.0123 46.5268C38.1293 47.4727 38.2463 48.3539 38.3657 49.235L38.3881 49.4193C38.5026 50.2656 38.6146 51.1294 38.7291 52.0379C38.7361 52.2054 38.7578 52.372 38.7938 52.5358V52.5632C38.9208 53.2303 39.0776 54.0567 37.7659 54.4425C37.517 54.4425 37.288 55.1893 37.288 55.6349C37.288 56.4862 37.3503 57.3773 37.4075 58.1689C37.4648 58.9605 37.527 59.8417 37.527 60.6731C37.5393 61.0701 37.5776 61.4659 37.6415 61.858C37.7112 62.2603 37.7528 62.6671 37.7659 63.0752L37.0466 72.4347C37.0296 73.1004 36.8656 73.7541 36.5663 74.3489C36.2048 75.1856 35.7657 75.9865 35.2546 76.7411C35.0555 77.0523 34.8514 77.3684 34.6498 77.7094C33.7684 79.3108 32.9814 80.9623 32.2928 82.6555L32.253 82.7451C31.8211 83.6767 31.4778 84.6468 31.2276 85.6426V85.6775C31.1006 86.128 30.9662 86.601 30.8119 87.0615C30.6601 87.8829 30.5356 88.6098 30.4112 89.3765L30.3913 89.4835C30.2942 90.0162 30.1972 90.5588 30.0951 91.1438C29.9966 91.8479 29.9567 92.5589 29.9756 93.2696C29.9756 93.5385 29.9756 93.7998 29.9756 94.0537L29.9582 94.0687ZM75.667 27.5737C75.3608 27.056 75.0845 26.5631 74.863 26.1623L74.8381 26.125C74.5295 25.5724 74.2582 25.0895 73.9894 24.6912C74.2906 24.3079 74.5445 23.9643 74.7983 23.6059C75.2317 22.9277 75.7683 22.3213 76.3887 21.8087C76.7997 21.6109 77.2452 21.4951 77.7004 21.4676C77.8307 21.4565 77.9606 21.4927 78.0663 21.5697C78.3117 21.7645 78.4897 22.0315 78.575 22.3331C78.6604 22.6346 78.6487 22.9554 78.5416 23.2499C78.1355 24.0072 77.6642 24.7277 77.1329 25.4031L77.118 25.4255C76.5929 26.1091 76.11 26.824 75.6719 27.5663L75.667 27.5737ZM67.0902 16.5215C66.5847 16.5106 66.0828 16.4345 65.5968 16.295L65.7213 15.7698C65.9279 14.8737 66.1593 13.863 66.5551 13.6614C68.6856 12.9545 68.7204 11.324 68.4715 9.81802V9.75081C68.2401 7.42088 67.9737 4.77234 65.124 4.06042C64.6934 3.90799 64.2714 3.73266 63.8596 3.53519L63.7799 3.49785C63.658 3.44557 63.5311 3.38832 63.4066 3.32858L63.3519 3.31116C73.8177 4.46336 83.6414 8.93062 91.3894 16.061H74.9501C74.4093 16.0957 73.8717 15.9552 73.417 15.6602C72.7067 15.2435 71.9208 14.9719 71.1048 14.8612C70.4358 15.1079 69.7929 15.4206 69.1858 15.7947L69.1485 15.8171C68.5503 16.2563 67.8321 16.5021 67.0902 16.5215V16.5215Z" fill="#293E7B"/>
<path d="M18.4385 113.824L10 108H15.4382L20.2334 111.356L25.1223 108H30.3596L21.9211 113.824V117H18.4385V113.824Z" fill="#293E7B"/>
<path d="M32.115 117C31.4899 117 31.0122 116.841 30.6818 116.524C30.3514 116.207 30.1862 115.753 30.1862 115.161V109.839C30.1862 109.247 30.3514 108.793 30.6818 108.476C31.0122 108.159 31.4899 108 32.115 108H45.2014C45.8264 108 46.2997 108.159 46.6212 108.476C46.9516 108.793 47.1168 109.247 47.1168 109.839V115.161C47.1168 115.753 46.9516 116.207 46.6212 116.524C46.2997 116.841 45.8264 117 45.2014 117H32.115ZM43.6342 114.017V110.983H33.6687V114.017H43.6342Z" fill="#293E7B"/>
<path d="M64.9256 108V115.161C64.9256 115.753 64.7604 116.207 64.43 116.524C64.1085 116.841 63.6352 117 63.0101 117H50.2318C49.6157 117 49.1424 116.841 48.812 116.524C48.4816 116.207 48.3164 115.753 48.3164 115.161V108H51.799V114.004H61.443V108H64.9256Z" fill="#293E7B"/>
<path d="M65.877 108H82.7674V110.996H76.0702V117H72.5876V110.996H65.877V108Z" fill="#293E7B"/>
<path d="M83.7123 108H87.1949V110.996H96.5174V108H100V117H96.5174V114.004H87.1949V117H83.7123V108Z" fill="#293E7B"/>
</svg>
