<svg width="742" height="874" viewBox="0 0 742 874" fill="none" xmlns="http://www.w3.org/2000/svg">
<path d="M618.424 833.306H582.992V853H560.632V792.8H652.652C656.666 792.8 659.704 793.861 661.768 795.982C663.89 798.103 664.95 801.142 664.95 805.098V821.008C664.95 824.964 663.89 828.003 661.768 830.124C659.704 832.245 656.666 833.306 652.652 833.306H645.858L665.122 853H637.688L618.424 833.306ZM642.59 817.052V810.516H582.992V817.052H642.59Z" fill="white"/>
<path d="M456.61 853C452.597 853 449.529 851.939 447.408 849.818C445.287 847.697 444.226 844.658 444.226 840.702V805.098C444.226 801.142 445.287 798.103 447.408 795.982C449.529 793.861 452.597 792.8 456.61 792.8H540.632C544.645 792.8 547.684 793.861 549.748 795.982C551.869 798.103 552.93 801.142 552.93 805.098V840.702C552.93 844.658 551.869 847.697 549.748 849.818C547.684 851.939 544.645 853 540.632 853H456.61ZM530.57 833.048V812.752H466.586V833.048H530.57Z" fill="white"/>
<path d="M414.08 792.8H436.44V853H414.08V792.8Z" fill="white"/>
<path d="M298.685 792.8H332.311L383.825 835.456V792.8H406.185V853H372.559L321.045 810.344V853H298.685V792.8Z" fill="white"/>
<path d="M290.77 792.8V840.702C290.77 844.658 289.71 847.697 287.588 849.818C285.524 851.939 282.486 853 278.472 853H196.428C192.472 853 189.434 851.939 187.312 849.818C185.191 847.697 184.13 844.658 184.13 840.702V792.8H206.49V832.962H268.41V792.8H290.77Z" fill="white"/>
<path d="M76 832.962H153.83V812.838H110.486V792.8H176.19V840.702C176.19 844.658 175.129 847.697 173.008 849.818C170.887 851.939 167.848 853 163.892 853H76V832.962Z" fill="white"/>
<path d="M742 172.297C739.088 34.2864 738.921 64.1264 741.74 21.0075C741.817 19.7845 741.409 18.5806 740.606 17.6583C739.804 16.736 738.67 16.1701 737.455 16.0839C532.93 2.02181 525.176 0.39925 509.316 0.39925C230.296 0.39925 376.781 -4.2073 4.34629 17.8744C3.13068 17.9466 1.99264 18.4985 1.17975 19.4101C0.366868 20.3217 -0.0550383 21.5192 0.00576784 22.742C24.0271 485.748 23.1554 410.291 10.9314 718.799C10.8857 719.874 11.2145 720.932 11.8612 721.79C12.508 722.648 13.432 723.253 14.4743 723.499C42.2984 730.121 37.4014 727.508 102.435 727.566C102.547 727.566 224.286 714.231 224.398 714.212C224.973 714.305 392.752 742 393.327 742H393.717C590.34 725.439 533.987 729.43 660.828 722.362L735.322 737.506C735.999 737.648 736.697 737.636 737.367 737.472C738.037 737.305 738.663 736.991 739.197 736.551C739.73 736.11 740.159 735.556 740.453 734.928C740.746 734.299 740.894 733.611 740.887 732.917C739.199 582.113 742 172.297 742 172.297ZM439.644 161.312L441.982 160.715L495.072 148.704C513.995 144.701 532.297 138.145 549.476 129.215C566.934 136.19 583.047 146.175 597.092 158.72C599.068 160.446 600.431 162.769 600.983 165.341C601.535 167.913 601.245 170.596 600.153 172.987C599.856 174.274 599.504 175.728 599.151 177.482C599.151 177.594 599.151 177.705 599.151 177.836L587.483 269.576C575.945 270.005 574.98 269.109 571.79 266.162C569.981 264.437 568.027 262.87 565.947 261.481C548.401 249.639 490.991 206.93 472.867 192.234L437.084 163.419L437.363 163.14C437.761 162.732 438.088 162.259 438.327 161.741C438.742 161.546 439.197 161.402 439.644 161.312ZM522.264 623.18C521.206 622.118 76.726 148.369 76.4107 147.716L115.234 117.764L657.878 479.035C654.101 492.199 651.105 505.576 648.9 519.094C639.841 555.355 626.069 590.256 607.944 622.9C580.508 624.02 524.156 623.816 522.264 623.18ZM117.887 495C123.032 480.916 128.92 467.121 135.528 453.67C188.965 497.898 238.771 546.383 284.46 598.655C261.854 603.911 239.664 610.835 218.072 619.375C193.958 629.056 171.124 638.25 149.087 630.735C143.092 626.883 137.499 622.434 132.393 617.455C120.353 606.849 107.453 597.273 93.8287 588.828C79.5642 580.36 81.7529 582.131 117.924 495H117.887Z" fill="white"/>
</svg>
