<?xml version="1.0" encoding="utf-8"?>
<!-- Generator: Adobe Illustrator 24.3.0, SVG Export Plug-In . SVG Version: 6.00 Build 0)  -->
<svg version="1.1" id="Layer_1" xmlns="http://www.w3.org/2000/svg" xmlns:xlink="http://www.w3.org/1999/xlink" x="0px" y="0px"
	 viewBox="0 0 35 40" style="enable-background:new 0 0 35 40;" xml:space="preserve">
<style type="text/css">
	.st0{fill:#FFFFFF;}
</style>
<path class="st0" d="M17.5,35c-2.7,0-5.4-0.6-7.8-1.9c0.1-0.3,0.2-0.6,0.3-0.8c0.1-0.2,0.2-0.4,0.4-0.5l0,0c0.2-0.1,0.3-0.3,0.4-0.6
	c0.1-0.4,0.3-0.7,0.5-1.1c0.5-0.8,0.8-1.7,0.7-2.6c0,0,0,0,0,0c0,0,0,0,0,0c0,0,0,0,0,0c0,0,0,0,0,0l0,0l0-0.1
	c0.4-0.5,0.8-1.1,1.2-1.8c0.2-0.3,0.3-0.5,0.4-0.8c0.1-0.2,0.2-0.4,0.2-0.5c0-0.1,0-0.2,0.1-0.3c0.2-0.5,0.5-1,0.7-1.4
	c0.2-0.4,0.5-1,0.7-1.5c0,0,0.1,0.1,0.1,0.1l0,0c0.3,0.5,0.5,0.9,1,0.9c0,0,0.1,0,0.1,0c0.1,0,0.1,0.1,0.2,0.2
	c0,0.1,0.1,0.1,0.1,0.2c0.1,0.2,0.2,0.3,0.3,0.5l0,0.1l0,0c0.4,0.5,0.7,1,1.1,1.6c0.2,0.2,0.5,0.5,0.8,0.5c0.3,0,0.5,0.1,0.7,0.3
	c0.1,0.1,0.1,0.2,0.1,0.3s0,0.2-0.1,0.4c0,0.2-0.1,0.4-0.2,0.6c-0.1,0.3-0.2,0.6-0.2,0.8c0,0.8,0.1,1.7,0.3,2.5l0,0.2
	c0,0.3,0.1,0.5,0.2,0.7v0c0.1,0.3,0.1,0.5,0.2,0.8c0.1,0.7,0,1.5-0.2,2.2l0,0c-0.1,0.3-0.2,0.6-0.2,0.9c0,0,0,0.1,0,0.1
	C19.1,34.9,18.3,35,17.5,35L17.5,35z M23.5,33.9c-0.3-0.3-0.6-0.6-0.7-1c-0.2-0.4-0.2-0.8-0.2-1.3l0-0.2l0.2-1
	c0.1-0.3,0.1-0.7,0.1-1c0-0.2,0-0.4,0-0.6c0-0.3,0-0.7,0-1c0-0.3,0.1-0.7,0.1-1c0.2-0.9,0.1-1.9-0.1-2.8c-0.1-0.3-0.2-0.5-0.4-0.8
	c-0.1-0.2-0.2-0.4-0.3-0.6c-0.6-1.7-1.4-3.2-2.5-4.6c-0.2-0.3-0.3-0.6-0.3-0.9c0-0.1,0-0.2-0.1-0.3c0-0.1,0.3-0.3,0.4-0.3
	c0.1,0.1,0.2,0.1,0.4,0.1c0.3,0,0.4-0.3,0.5-0.5c0.2-1.3,0.3-2.4,0.3-3.7c0-0.1,0-0.2-0.1-0.3s-0.1-0.2-0.2-0.2
	c-0.1,0-0.2-0.1-0.2-0.1c-0.1-0.1-0.1-0.1-0.2-0.2c-0.1-0.2,0-0.5,0.1-0.7l0,0c0,0,0-0.1,0-0.1c0.3,0.1,0.6,0.3,0.8,0.4
	c0.4,0.2,0.9,0.4,1.4,0.6c0.4,0.1,0.7,0.2,1.1,0.2c0.1,0,0.3,0,0.4-0.1c0.4-0.1,0.7-0.4,1-0.7c0.3-0.3,0.4-0.7,0.5-1.1
	c0.1-0.5,0.2-1,0.8-1.2l-0.1-0.3l0-0.1c0-0.1-0.1-0.3-0.1-0.4c-0.1-0.3-0.1-0.6,0-0.8c0.1-0.3,0.2-0.5,0.4-0.7
	c0.2-0.2,0.3-0.4,0.6-0.5c0.2-0.1,0.5-0.2,0.7-0.2c0,0,0.1,0,0.1,0c0.9,0,1.7-0.1,2.6-0.3h0c1.9,2.1,3.2,4.7,3.9,7.5
	c0.7,2.8,0.7,5.7,0,8.4c-0.7,2.8-2.1,5.3-4,7.4S26.2,33,23.5,33.9L23.5,33.9z M7.7,32c-3.1-2.1-5.5-5.1-6.7-8.7
	c-1.3-3.5-1.3-7.4-0.2-11c1.1-3.6,3.3-6.7,6.3-9c3-2.2,6.7-3.4,10.4-3.4c0.1,0,0.2,0,0.3,0c-0.7,0.3-1.3,0.8-1.6,1.4
	c-0.3,0.7-0.4,1.4-0.2,2.1c0,0.1,0.1,0.3,0,0.4v0c0,0.1,0,0.1,0,0.2C15.9,4.1,15.7,4,15.5,4c-0.2-0.1-0.3-0.1-0.5-0.1
	c-0.4,0-0.8,0.1-1.1,0.3c-0.3,0.2-0.6,0.5-0.8,0.8c-0.8,1.2-1.1,2.6-0.9,4c0,0.1,0,0.1,0,0.2l0,0.1c0,0.4,0.1,0.5,0,0.6
	c-0.1,0.1-0.3,0.1-0.8,0.1c-0.5,0-0.7,0.2-0.7,0.7c0,0.6-0.1,1.2-0.1,1.7l0,0.2l0,0.1l0,0.1c-0.1,0.9-0.1,0.9,1,1.2
	c-0.2,0.1-0.4,0.2-0.5,0.3c-0.1,0.2-0.2,0.4-0.3,0.6c0,0.1-0.1,0.3-0.2,0.4c0,0.3,0.1,0.6,0.1,1l0,0.1c0,0.3,0.1,0.6,0.1,0.9
	c0,0.1,0,0.1,0,0.2v0c0,0.2,0.1,0.5-0.4,0.7c-0.1,0-0.2,0.3-0.2,0.4c0,0.3,0,0.6,0,0.9c0,0.3,0,0.6,0,0.9c0,0.1,0,0.3,0,0.4
	c0,0.1,0,0.3,0,0.4l-0.3,3.3c0,0.2-0.1,0.5-0.2,0.7c-0.1,0.3-0.3,0.6-0.5,0.8c-0.1,0.1-0.1,0.2-0.2,0.3c-0.3,0.6-0.6,1.1-0.8,1.7
	l0,0c-0.2,0.3-0.3,0.7-0.4,1v0c0,0.2-0.1,0.3-0.1,0.5c-0.1,0.3-0.1,0.5-0.1,0.8l0,0c0,0.2-0.1,0.4-0.1,0.6c0,0.2,0,0.5,0,0.7
	C7.7,31.8,7.7,31.9,7.7,32L7.7,32z M23.8,8.6c-0.1-0.2-0.2-0.4-0.3-0.5l0,0c-0.1-0.2-0.2-0.4-0.3-0.5c0.1-0.1,0.2-0.3,0.3-0.4
	C23.6,7,23.8,6.8,24,6.6c0.1-0.1,0.3-0.1,0.5-0.1c0,0,0.1,0,0.1,0c0.1,0.1,0.1,0.2,0.2,0.3c0,0.1,0,0.2,0,0.3
	c-0.1,0.3-0.3,0.5-0.5,0.8l0,0C24.1,8.1,23.9,8.4,23.8,8.6L23.8,8.6z M20.8,4.8c-0.2,0-0.4,0-0.5-0.1l0-0.2c0.1-0.3,0.2-0.7,0.3-0.7
	c0.7-0.2,0.8-0.8,0.7-1.4v0c-0.1-0.8-0.2-1.7-1.2-2c-0.2-0.1-0.3-0.1-0.4-0.2l0,0c0,0-0.1,0-0.1-0.1l0,0c3.7,0.4,7.1,2,9.9,4.5h-5.8
	c-0.2,0-0.4,0-0.5-0.1c-0.2-0.1-0.5-0.2-0.8-0.3c-0.2,0.1-0.5,0.2-0.7,0.3l0,0C21.3,4.7,21,4.7,20.8,4.8L20.8,4.8z"/>
<g>
	<path class="st0" d="M0.1,38.1h3.4v-0.9H1.7v-0.9h2.9v2.1c0,0.2,0,0.3-0.1,0.4C4.3,38.9,4.2,39,4,39H0.1V38.1z"/>
	<path class="st0" d="M6.9,36.3H8l2.3,2.6H9.1l-0.4-0.5H6.2L5.8,39H4.6L6.9,36.3z M8,37.7L7.4,37l-0.6,0.7H8z"/>
	<path class="st0" d="M12.4,39h-1.1L9,36.3h1.3l1.6,1.8l1.6-1.8h1.3L12.4,39z"/>
	<path class="st0" d="M19.3,36.3V37h-3.4v0.3h3.4V38h-3.4v0.3h3.4V39h-4.4v-2.6H19.3z"/>
	<path class="st0" d="M19.7,36.3h1v1.8h3V39h-4V36.3z"/>
	<path class="st0" d="M23.9,36.3h1V39h-1V36.3z"/>
	<path class="st0" d="M25.2,36.3h1.5l2.3,1.9v-1.9h1V39h-1.5l-2.3-1.9V39h-1V36.3z"/>
	<path class="st0" d="M34.9,37h-3.6v0.3h3.1c0.2,0,0.3,0,0.4,0.1s0.1,0.2,0.1,0.4v0.6c0,0.2,0,0.3-0.1,0.4S34.5,39,34.3,39h-4.1
		v-0.7h3.6V38h-3.1c-0.2,0-0.3,0-0.4-0.1s-0.1-0.2-0.1-0.4v-0.6c0-0.2,0-0.3,0.1-0.4s0.2-0.1,0.4-0.1h4.1V37z"/>
</g>
</svg>
