<svg width="41" height="31" viewBox="0 0 41 31" fill="none" xmlns="http://www.w3.org/2000/svg">
<path d="M2.60463 0.0974473C2.35187 0.159824 2.12495 0.299685 1.95563 0.497447C1.73263 0.767447 1.72363 0.808447 1.74363 1.61945C1.75263 2.08545 1.75263 2.91045 1.74363 3.46745C1.73463 4.46745 1.73463 4.46745 1.55163 4.40445C1.08962 4.28352 0.600595 4.31868 0.160632 4.50445C0.0356324 4.64045 0.0356324 4.64045 0.178632 4.59045C0.285632 4.55845 0.321632 4.57245 0.294632 4.64045C0.286118 4.66834 0.26797 4.6923 0.243425 4.70806C0.218881 4.72381 0.189538 4.73033 0.160632 4.72645C0.0996324 4.71245 0.0636324 4.86545 0.0636324 5.14245C0.061399 5.39084 0.0450393 5.63891 0.0146324 5.88545C-0.00833055 5.98047 -0.00419988 6.08003 0.0265557 6.17283C0.0573113 6.26563 0.113461 6.34795 0.188632 6.41045C0.388632 6.62745 0.456632 6.64545 1.05663 6.64545C1.61563 6.64545 1.71463 6.67245 1.74963 6.79045C1.79863 6.98545 1.74063 16.6214 1.69163 16.7574C1.66463 16.8344 1.47663 16.8664 1.11463 16.8664C0.842721 16.8488 0.570671 16.8987 0.322632 17.0114C0.0716324 17.1654 0.0636324 17.1794 0.0546324 17.8404C0.0366324 19.1854 0.0726323 19.2354 1.12363 19.2354H1.82363L1.79963 20.8574C1.76863 23.1394 1.83063 23.2394 3.45063 23.3304C5.85063 23.4574 12.8856 23.5074 14.0396 23.4074C14.4221 23.3766 14.806 23.3659 15.1896 23.3754C15.7306 23.3844 15.8656 23.3754 15.9636 23.2754C16.0486 23.2074 16.0796 23.2074 16.0796 23.2754C16.078 23.2999 16.0859 23.3241 16.1018 23.3427C16.1177 23.3614 16.1402 23.3732 16.1646 23.3754C16.2136 23.3754 16.2496 23.2984 16.2496 23.1984C16.2496 23.0984 16.2186 23.0534 16.1646 23.0804C16.1106 23.1074 16.0796 23.0894 16.0796 23.0394C16.0796 22.8854 16.2796 22.9894 16.3706 23.1934C16.4556 23.3794 16.4776 23.3794 18.3296 23.3794C19.3626 23.3794 20.7816 23.4064 21.4836 23.4294C23.1051 23.5329 24.7328 23.4706 26.3416 23.2434C26.3416 23.1754 26.3816 23.1254 26.4356 23.1254C26.4896 23.1254 26.5116 23.1844 26.4756 23.2524C26.4446 23.3614 26.5336 23.3794 27.0756 23.3794C27.4246 23.3884 29.3526 23.3974 31.3656 23.4064C33.3786 23.4154 34.9846 23.3974 34.9656 23.3564C34.9466 23.3154 34.9926 23.2974 35.0656 23.2974C35.1386 23.2974 35.1726 23.3384 35.1416 23.3974C35.9615 23.5049 36.7945 23.4509 37.5936 23.2384C38.2016 22.9384 38.2376 22.8084 38.2426 20.9744C38.2319 20.382 38.2543 19.7894 38.3096 19.1994C38.3406 19.0994 38.4096 19.0814 38.5426 19.1224C38.9815 19.1956 39.4306 19.1786 39.8626 19.0724C39.9696 19.0044 39.9626 18.9954 39.8356 18.9864C39.7416 18.9864 39.6926 18.9454 39.7196 18.8774C39.7376 18.8274 39.7956 18.7774 39.8356 18.7914C39.976 18.3064 40.0101 17.7968 39.9356 17.2974C39.7356 16.9354 39.7026 16.9174 38.9426 16.8764L38.1816 16.8354L38.1636 11.7404L38.1306 6.65745H38.8736C39.5576 6.65745 39.6166 6.63945 39.8176 6.42245C39.8939 6.36078 39.9508 6.27853 39.9816 6.18546C40.0125 6.0924 40.0159 5.99243 39.9916 5.89745C39.9593 5.65211 39.9433 5.4049 39.9436 5.15745C39.9436 4.87245 39.9126 4.71845 39.8496 4.73645C39.8191 4.738 39.7891 4.72886 39.7646 4.71061C39.7401 4.69235 39.7228 4.66612 39.7156 4.63645C39.6886 4.56845 39.7246 4.55045 39.8316 4.58645C39.9656 4.63645 39.9656 4.62745 39.8586 4.50945C39.4357 4.33847 38.9707 4.30044 38.5256 4.40045C38.1496 4.50045 38.1186 4.40945 38.0646 2.88745C37.9696 0.545447 37.7946 0.210447 36.6546 0.242447C36.4208 0.255975 36.1862 0.245251 35.9546 0.210447C35.2198 0.0812946 34.4746 0.0207008 33.7286 0.0294473C33.4516 0.0384473 32.9676 0.0384473 32.6456 0.0384473C32.3236 0.0384473 30.6776 0.0574473 28.9726 0.0654473C27.2676 0.0734473 25.5726 0.0924473 25.1726 0.106447C24.7726 0.120447 24.2956 0.138447 24.0896 0.133447C20.8536 0.0834473 18.1686 0.0654473 18.0256 0.102447C17.9186 0.129447 17.8426 0.179447 17.8596 0.211447C17.8766 0.243447 17.8436 0.278447 17.7936 0.287447C17.7436 0.296447 17.7086 0.257447 17.7086 0.201447C17.7086 0.124447 17.3086 0.101447 15.9996 0.101447C14.6706 0.101447 14.2996 0.128447 14.2996 0.201447C14.2996 0.274447 14.2686 0.310447 14.1926 0.310447C14.1166 0.310447 14.0856 0.278447 14.1076 0.233447C14.2096 0.0794473 13.6686 0.0574473 9.86563 0.0574473C7.75463 0.0574473 5.35163 0.0384473 4.52463 0.0254473C3.884 -0.0247702 3.23971 -0.000609197 2.60463 0.0974473V0.0974473ZM19.5646 2.38445C30.9856 2.40245 34.7646 2.37545 34.7646 2.30745C34.7646 2.23945 34.7916 2.23945 34.8316 2.30745C34.972 2.39935 35.1381 2.44386 35.3056 2.43445L35.7216 2.46145L35.7306 2.88245C35.7486 3.55745 35.8556 10.3824 35.8466 10.5264C35.8196 11.2464 35.8466 16.6764 35.8866 18.5694C35.986 19.3945 35.9715 20.2293 35.8436 21.0504C35.6154 21.0942 35.3824 21.108 35.1506 21.0914C34.5336 21.0644 32.2786 21.0644 23.6356 21.0734C19.1526 21.0824 18.5716 21.1004 18.6116 21.2094C18.6426 21.2954 18.6026 21.3364 18.4956 21.3364C18.3886 21.3364 18.3436 21.2954 18.3796 21.2094C18.4196 21.1004 17.8966 21.0914 14.1796 21.0914C11.8536 21.1004 9.25863 21.1234 8.41263 21.1504C7.90777 21.1942 7.39994 21.1912 6.89563 21.1414C6.89563 21.0414 6.60463 21.0734 6.49563 21.1824C6.41963 21.2594 6.37063 21.2684 6.32963 21.2004C5.97657 21.0915 5.60526 21.0545 5.23763 21.0914C4.87002 21.0987 4.50236 21.079 4.13763 21.0324C4.06865 20.7974 4.0429 20.5517 4.06163 20.3074C4.06163 19.7414 4.04363 19.6414 3.93663 19.6824C3.85163 19.7144 3.81163 19.6734 3.81163 19.5644C3.81163 19.4554 3.85163 19.4104 3.93663 19.4464C4.04363 19.4874 4.06163 19.1154 4.07063 16.4304C4.10163 6.33045 4.10163 6.44545 3.98563 6.40445C3.91863 6.37745 3.90063 6.34545 3.95863 6.30445C4.09379 5.82423 4.10309 5.3173 3.98563 4.83245C3.92685 4.70311 3.91586 4.55712 3.95463 4.42045C4.01043 4.07758 4.03885 3.73082 4.03963 3.38345C4.04863 2.86745 4.05763 2.40545 4.05763 2.33745C4.05763 2.26945 4.11563 2.23745 4.21463 2.29645C4.29063 2.32845 11.2026 2.36845 19.5686 2.37845L19.5646 2.38445Z" fill="white"/>
<path d="M31.0846 4.51844L29.3086 4.53645L28.9816 4.85844C28.8634 4.95076 28.768 5.06904 28.7028 5.20412C28.6376 5.33919 28.6044 5.48746 28.6056 5.63744C28.5087 6.87467 28.5026 8.11734 28.5876 9.35545C28.6276 10.3114 28.6546 11.2394 28.6366 11.4254C28.6186 11.6114 28.6056 13.1644 28.6056 14.8894L28.5966 18.0144L28.7966 18.3454C28.9127 18.5282 29.0725 18.6791 29.2616 18.7844C30.633 18.939 32.0165 18.9528 33.3906 18.8254C33.6032 18.7471 33.7894 18.6103 33.9279 18.431C34.0664 18.2517 34.1516 18.0369 34.1736 17.8114C34.2586 16.9914 34.2226 10.7514 34.1336 10.5114L34.0396 10.2854H32.8946C32.4773 10.2434 32.0559 10.2773 31.6506 10.3854C31.5527 10.6782 31.5186 10.9884 31.5506 11.2954V12.1064L31.8016 12.2514L32.0526 12.4054L32.0616 13.3514C32.0616 13.8764 32.0616 14.7194 32.0526 15.2444C32.0228 15.6133 32.0515 15.9845 32.1376 16.3444C32.1726 16.4013 32.1918 16.4665 32.1934 16.5332C32.195 16.6 32.1788 16.6659 32.1466 16.7244C32.0616 16.9504 32.0526 16.9504 31.4306 16.9194C30.7196 16.8874 30.5896 16.8334 30.7196 16.6654C30.8136 16.5474 30.8536 10.6424 30.7776 7.86544L30.7376 6.50645L31.3376 6.47444C32.2326 6.43344 32.2236 6.42444 32.2236 7.03144C32.2065 7.24477 32.2408 7.45909 32.3236 7.65644C32.3996 7.73344 32.3996 7.75645 32.3236 7.75645C32.1406 7.75645 32.2166 7.99144 32.4176 8.03744C32.9389 8.09021 33.4651 8.06425 33.9786 7.96044C34.0501 7.47907 34.0858 6.99309 34.0856 6.50645L34.1166 5.12044L33.8836 4.88544C33.6836 4.68544 33.5076 4.61344 32.9486 4.52344C32.8966 4.50044 32.0516 4.50044 31.0846 4.51844ZM7.23964 4.68144C7.12039 5.25014 7.09472 5.83448 7.16364 6.41145C7.19064 8.30445 7.18164 8.15944 7.27964 8.00144C7.34664 7.90144 7.36464 7.92444 7.36464 8.10144C7.36464 8.21944 7.32464 8.33645 7.26464 8.35545C7.18864 8.38245 7.16465 8.74444 7.16465 9.61444C7.15565 10.6694 7.13764 10.8644 7.01264 10.9914C6.88764 11.1184 6.86065 11.2914 6.86065 12.0734C6.83824 12.3707 6.85776 12.6696 6.91865 12.9614C6.99465 12.8844 7.27665 13.1474 7.27665 13.3014C7.27665 13.3604 7.24965 13.4104 7.21865 13.4104C7.14283 14.2672 7.11144 15.1274 7.12464 15.9874C7.11564 17.4044 7.14264 18.5644 7.17364 18.5644C7.20464 18.5644 7.28964 18.6644 7.33964 18.7774C7.43364 18.9774 7.46465 18.9904 8.26565 18.9904C9.50065 18.9904 9.43363 19.1444 9.41063 16.0694C9.39263 14.7244 9.37964 13.5874 9.36164 13.5424C9.26764 13.1804 9.31264 13.1624 10.4976 13.1624C11.7816 13.1624 12.2646 13.0624 12.5506 12.7624L12.7426 12.5494L12.7696 8.88544C12.8218 7.60656 12.7994 6.32573 12.7026 5.04945C12.4926 4.66045 12.2686 4.62844 9.72364 4.60144C8.89589 4.52821 8.06236 4.55373 7.24064 4.67744L7.23964 4.68144ZM10.5326 6.70544C10.5416 6.79144 10.5416 7.69245 10.5506 8.71645C10.5596 9.74045 10.5776 10.5054 10.5906 10.4234C10.6576 10.1694 10.7826 10.2694 10.7826 10.5814C10.7826 10.8264 10.7556 10.8754 10.6486 10.8354C10.5416 10.7954 10.5326 10.8264 10.5636 10.9354C10.6036 11.0624 10.5546 11.0804 10.0536 11.0534C9.82338 11.0544 9.59571 11.0049 9.38665 10.9084C9.25265 10.7724 9.24364 10.5284 9.36864 10.5284C9.46523 9.88819 9.47866 9.23814 9.40864 8.59444C9.39064 7.53044 9.39064 6.63344 9.41764 6.61044C9.60963 6.56618 9.80692 6.54935 10.0036 6.56044C10.4526 6.56144 10.5326 6.58345 10.5326 6.70145V6.70544ZM14.3796 4.65444C14.2475 5.32061 14.2673 6.008 14.4376 6.66544C14.4866 6.65644 14.5376 6.70644 14.5376 6.77444C14.5376 6.84244 14.4886 6.89244 14.4376 6.87444C14.3616 6.86544 14.3216 7.00144 14.3036 7.30444C14.2856 7.65744 14.3036 7.74344 14.3886 7.69344C14.4736 7.64344 14.4736 7.65244 14.4066 7.75244C14.2726 7.92944 14.1826 17.4974 14.3066 18.0634C14.3248 18.1861 14.3674 18.3038 14.432 18.4097C14.4966 18.5155 14.5818 18.6072 14.6826 18.6794L14.9596 18.8964L17.1476 18.8644C19.5856 18.8324 19.7606 18.7874 20.0246 18.2714C20.2076 17.9094 20.2836 15.0604 20.2396 10.1024C20.2216 8.08244 20.2086 6.07244 20.2086 5.65144C20.2423 5.36564 20.2102 5.07591 20.1146 4.80444C20.1034 4.79726 20.0908 4.79261 20.0776 4.7908C20.0643 4.789 20.0509 4.79008 20.0382 4.79398C20.0254 4.79788 20.0137 4.8045 20.0037 4.81338C19.9938 4.82227 19.9859 4.83321 19.9806 4.84544C19.9406 4.99044 19.7976 4.97244 19.7976 4.81844C19.7976 4.71844 19.6636 4.69144 19.0866 4.69144C17.9416 4.69144 18.0266 4.41044 18.0356 8.30544C18.0446 10.1054 18.0666 12.0824 18.0936 12.6894C18.1336 13.4894 18.1206 13.8124 18.0536 13.8124C17.9016 13.8124 17.9466 14.1344 18.1116 14.2244C18.2116 14.2924 18.2276 14.3334 18.1516 14.3784C18.0422 14.7763 18 15.1897 18.0266 15.6014C17.9996 16.5794 17.9776 16.7834 17.8526 16.9104C17.7096 17.0554 17.6956 17.0554 17.5936 16.9104C17.4926 16.8287 17.3688 16.78 17.239 16.771C17.1093 16.7621 16.98 16.7933 16.8686 16.8604C16.6176 16.9874 16.3586 16.7424 16.4256 16.4394C16.4836 16.1854 16.5256 9.17544 16.4836 6.63944L16.4526 4.90044L16.0946 4.70544C15.8526 4.56944 15.6786 4.51944 15.5756 4.56944C15.2601 4.6388 14.9329 4.63572 14.6186 4.56044C14.575 4.55894 14.5315 4.56613 14.4906 4.58158C14.4498 4.59703 14.4124 4.62044 14.3806 4.65044L14.3796 4.65444ZM21.8146 4.64545C21.7091 5.84273 21.6987 7.04652 21.7836 8.24544C21.8234 8.5398 21.8294 8.83772 21.8016 9.13345C21.7622 9.3634 21.7684 9.59885 21.8196 9.82645C21.9266 9.96245 21.8196 10.2744 21.6676 10.2744C21.6006 10.2744 21.5676 10.3154 21.5916 10.3604C21.6156 10.4054 21.5826 10.5054 21.5156 10.5774C21.3532 11.0365 21.3361 11.5344 21.4666 12.0034C21.4956 12.0305 21.5183 12.0636 21.533 12.1004C21.5477 12.1373 21.554 12.1769 21.5516 12.2164C21.5487 12.2531 21.5559 12.2898 21.5725 12.3227C21.5891 12.3555 21.6144 12.3831 21.6456 12.4024C21.7798 13.3197 21.8134 14.2489 21.7456 15.1734C21.7121 16.1234 21.7375 17.0746 21.8216 18.0214C21.8616 18.0714 21.8616 18.1394 21.8306 18.1574C21.7775 18.2799 21.7635 18.4158 21.7906 18.5464L21.8216 18.8904L24.0496 18.8634C27.3686 18.8364 27.1766 19.0764 27.1856 14.9194C27.1856 12.1254 27.1766 11.9984 27.0196 11.8264C26.5196 11.2784 26.4606 11.1744 26.5946 11.1014C26.9306 10.9154 27.0106 10.5264 27.0286 9.25845C27.0376 8.58345 27.0556 7.35844 27.0686 6.53244C27.0956 5.11544 27.0866 5.01944 26.9166 4.86144C26.6576 4.59844 26.2676 4.54944 24.0046 4.53944C23.2738 4.471 22.537 4.50533 21.8156 4.64144L21.8146 4.64545ZM24.9376 6.57444C25.0092 7.6399 25.0092 8.70898 24.9376 9.77444C24.9286 10.3904 24.8886 10.4264 24.2616 10.3224L23.9036 10.2724L23.8546 9.53844C23.8276 9.13044 23.8056 8.74644 23.7966 8.67844C23.7876 8.61044 23.8236 8.08544 23.8546 7.51444L23.9126 6.48244H24.3956C24.5813 6.45928 24.7698 6.48982 24.9386 6.57044L24.9376 6.57444ZM24.9016 12.5114C24.9603 12.9907 24.9827 13.4738 24.9686 13.9564C24.9686 14.6994 24.9776 15.6564 24.9776 16.0844C24.997 16.3687 24.9836 16.6542 24.9376 16.9354C24.5813 17.032 24.2033 17.0113 23.8596 16.8764C23.7656 16.7994 23.7526 16.6994 23.8016 16.4684C23.8653 15.761 23.8907 15.0506 23.8776 14.3404C23.8776 12.7694 23.8956 12.5064 24.0116 12.4244C24.157 12.3714 24.3124 12.3514 24.4665 12.3657C24.6206 12.3801 24.7695 12.4285 24.9026 12.5074L24.9016 12.5114Z" fill="white"/>
<g clip-path="url(#clip0_2_528)">
<path d="M10.5704 26.0145L9.194 28.0145L7.80713 26.0145H6V30.0145H7.6075V28.1989L9.194 29.9077L10.77 28.1989V30.0145H12.3775V26.0145H10.5704Z" fill="white"/>
<path d="M16.7272 26.0145H13.6698C13.26 26.0145 12.9238 26.3251 12.9238 26.7038V29.2572C12.9238 29.6358 13.26 29.9465 13.6698 29.9465H16.7272C17.137 29.9465 17.4732 29.6358 17.4732 29.2572V26.7038C17.4732 26.3251 17.137 26.0145 16.7272 26.0145ZM15.7606 29.3446H14.6364V26.6261H15.7606V29.3446Z" fill="white"/>
<path d="M22.5478 27.2475V26.597C22.5478 26.2766 22.2642 26.0145 21.9174 26.0145H20.8563H19.3749H19.0281H18.2717V27.5679C18.2717 27.5679 17.8619 27.7135 17.9144 27.9271C17.967 28.1407 18.2507 28.2378 18.2507 28.2378V29.9853H19.0281H21.6968H21.928C22.2747 29.9853 22.5583 29.7232 22.5583 29.4028V28.4125C22.5583 28.0921 22.2747 27.83 21.928 27.83C22.2642 27.83 22.5478 27.5679 22.5478 27.2475ZM20.8563 29.1892C20.8563 29.3349 20.7302 29.4514 20.5726 29.4514H20.3204C20.1628 29.4514 20.0368 29.3349 20.0368 29.1892V28.4125C20.0368 28.2669 20.1628 28.1504 20.3204 28.1504H20.5726C20.7302 28.1504 20.8563 28.2669 20.8563 28.4125V29.1892ZM20.8563 27.3834C20.8563 27.5193 20.7407 27.6358 20.5831 27.6358H20.2994C20.1523 27.6358 20.0263 27.529 20.0263 27.3834V26.8688C20.0263 26.7329 20.1418 26.6164 20.2994 26.6164H20.5831C20.7302 26.6164 20.8563 26.7232 20.8563 26.8688V27.3834Z" fill="white"/>
<path d="M25.164 26.0145H23.3358V29.9465H25.164V26.0145Z" fill="white"/>
<path d="M27.8011 29.3446V26.0145H25.973V29.9465H26.8871V30.0145H29.167V29.3446H27.8011Z" fill="white"/>
<path d="M34 26.6164V26.0145H31.6465H31.1317H29.9129V27.6358C29.9024 27.6358 29.9024 27.6358 29.8919 27.6358C29.6713 27.6358 29.4927 27.7815 29.4927 27.9659C29.4927 28.1504 29.6713 28.296 29.8919 28.296C29.9024 28.296 29.9024 28.296 29.9129 28.296V29.995H31.1317V30.0145H34V29.4125H31.6465V28.2475H34V27.6455H31.6465V26.6164H34Z" fill="white"/>
</g>
<defs>
<clipPath id="clip0_2_528">
<rect width="28" height="4" fill="white" transform="translate(6 26.0145)"/>
</clipPath>
</defs>
</svg>
