<svg width="32" height="32" viewBox="0 0 32 32" fill="none" xmlns="http://www.w3.org/2000/svg">
<path d="M32 7.43059C31.8744 1.47866 31.8672 2.76556 31.9888 0.905986C31.9921 0.853239 31.9745 0.801319 31.9399 0.761544C31.9053 0.721769 31.8564 0.697364 31.804 0.693647C22.9835 0.0871938 22.6491 0.0172184 21.9651 0.0172184C9.93192 0.0172184 16.2493 -0.181447 0.187441 0.770862C0.135016 0.773976 0.0859358 0.797781 0.0508788 0.837095C0.0158218 0.876409 -0.00237362 0.928052 0.000248749 0.980788C1.03621 20.9487 0.998617 17.6945 0.471434 30.9994C0.469463 31.0458 0.483645 31.0914 0.511536 31.1284C0.539427 31.1654 0.579279 31.1915 0.624227 31.2021C1.82419 31.4877 1.613 31.375 4.4177 31.3775C4.4225 31.3775 9.67273 30.8024 9.67753 30.8016C9.70233 30.8056 16.9381 32 16.9629 32H16.9797C25.4594 31.2858 23.0291 31.4579 28.4993 31.1531L31.712 31.8062C31.7412 31.8123 31.7713 31.8118 31.8002 31.8047C31.8291 31.7975 31.8561 31.784 31.8791 31.765C31.9021 31.746 31.9206 31.7221 31.9333 31.695C31.9459 31.6679 31.9523 31.6382 31.952 31.6083C31.8792 25.1046 32 7.43059 32 7.43059ZM18.9604 6.95685L19.0612 6.93111L21.3508 6.41313C22.1669 6.24047 22.9562 5.95774 23.6971 5.57262V5.57262C24.45 5.87344 25.1449 6.30404 25.7506 6.84505C25.8358 6.91951 25.8946 7.0197 25.9184 7.13062C25.9422 7.24153 25.9297 7.35722 25.8826 7.46035C25.8698 7.51585 25.8546 7.57858 25.8394 7.65419C25.8394 7.65902 25.8394 7.66384 25.8394 7.66947L25.3362 11.6259C24.8386 11.6444 24.797 11.6058 24.6594 11.4787C24.5814 11.4043 24.4971 11.3367 24.4074 11.2768C23.6507 10.7661 21.1748 8.9242 20.3932 8.2904L18.85 7.04774L18.862 7.03567C18.8792 7.0181 18.8933 6.9977 18.9036 6.97535C18.9215 6.96695 18.9403 6.96074 18.9596 6.95685H18.9604ZM22.5235 26.8757C22.4779 26.8299 3.30894 6.39865 3.29534 6.3705L4.96968 5.07877L28.3721 20.6592C28.2092 21.2269 28.08 21.8038 27.9849 22.3868C27.5942 23.9506 27.0003 25.4558 26.2186 26.8636C25.0354 26.9119 22.6043 26.9031 22.5227 26.8757H22.5235ZM5.08408 21.3477C5.30596 20.7403 5.55991 20.1454 5.84486 19.5653C8.14945 21.4727 10.2974 23.5637 12.2678 25.818C11.2929 26.0447 10.3359 26.3433 9.40474 26.7116C8.36478 27.1291 7.38001 27.5256 6.42964 27.2015C6.1711 27.0354 5.92988 26.8435 5.70966 26.6288C5.19043 26.1714 4.63411 25.7584 4.04652 25.3942C3.43134 25.029 3.52573 25.1054 5.08568 21.3477H5.08408Z" fill="white"/>
</svg>
