<svg width="37" height="42" viewBox="0 0 37 42" fill="none" xmlns="http://www.w3.org/2000/svg">
<path d="M37 10.3511L26.2919 7.96947L18.5 0L10.7081 7.92366L0 10.3053L3.18966 20.9771L0 31.6489H0.0455665L10.7081 34.0305L18.5 41.9542L26.2463 34.0305L36.9544 31.6489L33.7648 20.9771L37 10.3511ZM29.6638 27.0229C27.4766 30.7786 23.3756 33.3435 18.7278 33.3893C18.6823 33.3893 18.6367 33.3893 18.5911 33.3893C13.9434 33.3893 9.84237 30.8702 7.60961 27.1603H7.56404V27.0687C6.42488 25.145 5.74138 22.9008 5.74138 20.4733C5.74138 18.4122 6.24261 16.4427 7.10837 14.7023C9.20443 10.5344 13.5333 7.64886 18.4544 7.60305C18.5 7.60305 18.5456 7.60305 18.5456 7.60305C23.5123 7.60305 27.7956 10.4427 29.9372 14.5649C30.8485 16.3511 31.3953 18.3664 31.3953 20.4733C31.4409 22.9008 30.803 25.0992 29.6638 27.0229Z" fill="white"/>
<path d="M13.0776 28.1221V30.687H23.8769V28.1221C26.9754 26.4733 29.0714 23.4046 29.0714 19.8778C29.0714 14.6107 24.3325 10.3053 18.4544 10.3053C12.6219 10.3053 7.83744 14.6107 7.83744 19.8778C7.88301 23.4046 9.97907 26.4275 13.0776 28.1221ZM26.4741 22.7633C26.4741 24.4122 25.1527 25.7862 23.5123 25.7862C21.8719 25.7862 20.5049 24.4122 20.5049 22.7633C20.5049 21.1145 21.8264 19.7862 23.5123 19.7862C25.1983 19.7862 26.4741 21.0687 26.4741 22.7633ZM18.8645 19.832L20.8239 17.9084C21.0973 17.6336 21.5074 17.6336 21.7808 17.9084C22.0542 18.1832 22.0542 18.5954 21.7808 18.8702L19.8214 20.7939C19.6847 20.9313 19.5025 20.9771 19.3202 20.9771C19.1379 20.9771 18.9557 20.9313 18.819 20.7939C18.6367 20.5191 18.6367 20.0611 18.8645 19.832ZM20.0948 26.2901H16.9052L18.5 23.542L20.0948 26.2901ZM14.9002 17.8626C15.1736 17.5878 15.5837 17.5878 15.8571 17.8626L17.8165 19.7862C18.0899 20.0611 18.0899 20.4733 17.8165 20.7481C17.6798 20.8855 17.4975 20.9313 17.3153 20.9313C17.133 20.9313 16.9507 20.8855 16.8596 20.7481L14.9002 18.8244C14.6724 18.5954 14.6724 18.1374 14.9002 17.8626ZM13.7155 19.7404C15.3559 19.7404 16.7229 21.0687 16.7229 22.7175C16.7229 24.3664 15.4015 25.7404 13.7155 25.7404C12.0296 25.7404 10.7537 24.4122 10.7537 22.7175C10.7081 21.0687 12.0751 19.7404 13.7155 19.7404Z" fill="white"/>
</svg>
