<svg xmlns="http://www.w3.org/2000/svg" viewBox="0 0 1160 1199.41"><defs><style>.cls-1{fill:#fff;}</style></defs><g id="Layer_2" data-name="Layer 2"><g id="Layer_1-2" data-name="Layer 1"><polygon class="cls-1" points="506.94 582.24 173.82 221.36 70.31 215.88 0 138.67 99.14 143.92 97.06 135.32 137.41 137.45 169.45 92.76 212.27 129.9 190.56 162.86 223.07 143.2 251.91 165.35 219.89 202.73 533.61 543.63 506.94 582.24"/><path class="cls-1" d="M691.83,657.39l3.58-75.15L436.21,147.5l46.94-21.8-16.7-33.19-33.78,3.73,23-21.41L426,26.91l-36.72,25.2H375.78S369.64,31.92,344,45.3L249.72,0l57.84,107.24s48.76,13.63,79.74,40.85Z"/><path class="cls-1" d="M925,310.11s-18.78-108.22-240.34-102-191.77,18.33-245.95,70.24l-181.56.75s-62.91-4.41-77.87,92.14V721.34S212.73,969.55,642,1199.41c445.08-175.76,498.64-462.21,498.64-462.21l19.09-325.13S1178.14,299.14,925,310.11ZM246.65,686.47s.53-188.83.75-263.83,34.44-66.84,34.44-66.84h169c11.05-3.47,26.59-42,66.45-61,38.07-18.14,146.83-16.61,156.53-16.44L634.54,1113C263.12,918.45,246.65,686.47,246.65,686.47Z"/></g></g></svg>