<svg width="1160" height="1200" viewBox="0 0 1160 1200" fill="none" xmlns="http://www.w3.org/2000/svg">
<path d="M837.592 370.363H874.358V720.001C858.269 706.206 846.079 691.853 836.74 678.123C756.49 559.928 825.828 397.003 837.592 370.396V370.363Z" fill="white"/>
<path d="M384.537 5.35593L532.421 55.7864V212.223H301.6C298.225 194.921 291.376 172.212 276.795 148.98C237.473 86.2283 171.805 67.3864 152.832 62.635C230.1 43.5311 307.302 24.4599 384.537 5.35593Z" fill="white"/>
<path d="M792.699 5.35593L644.816 55.7864V266.946C664.936 246.826 689.577 212.223 711.958 212.223H875.636C879.011 194.921 885.86 172.212 900.442 148.98C939.764 86.2283 1005.43 67.3864 1024.4 62.635C947.169 43.5311 869.967 24.4599 792.732 5.35593L792.699 5.35593Z" fill="white"/>
<path d="M308.022 888.824V995.255C330.862 1027.43 363.237 1066.82 407.606 1105.95C452.957 1145.96 497.063 1173.55 532.42 1192.29V883.712C508.991 885.743 484.841 887.382 459.969 888.529C406.393 890.954 355.602 890.823 308.022 888.856V888.824Z" fill="white"/>
<path d="M869.214 904.192V995.222C846.374 1027.4 813.999 1066.79 769.63 1105.91C724.279 1145.92 680.173 1173.52 644.816 1192.26V787.504C662.445 809.295 696.819 845.93 751.673 872.767C799.188 896.033 842.507 902.357 869.214 904.192Z" fill="white"/>
<path d="M302.878 670.423V727.669H352.915L302.878 670.423Z" fill="white"/>
<path d="M346.919 370.363L529.864 580.637V364.399C522.918 371.182 515.184 380.816 501.979 391.662C478.615 410.766 472.815 411.716 468.653 411.552C464.983 411.389 460.002 410.275 434.672 388.778C425.989 381.438 418.911 375.049 413.832 370.395H346.951L346.919 370.363Z" fill="white"/>
<path d="M62.2599 334.154H427.267L467.015 375.081L593.959 248.137H152.864L62.2599 334.154Z" fill="white"/>
<path d="M635.837 334.154L726.474 248.137H1160L1035.91 375.081L993.799 334.154H635.837Z" fill="white"/>
<path d="M623.451 370.363C609.164 400.116 567.843 495.8 595.237 614.422C602.414 645.453 628.432 758.111 736.272 826.007C753.803 837.05 863.414 903.471 983.739 860.643C1026.96 845.242 1057.21 820.895 1074.77 804.216C1057.17 807.198 938.912 825.319 849.094 745.233C758.62 664.59 763.994 544.035 765.764 504.156C768.353 445.664 785.228 399.363 798.532 370.363H623.451Z" fill="white"/>
<path d="M85.3288 370.363H302.878L570.858 685.791C598.35 716.167 606.411 758.307 591.371 793.271C575.117 831.086 538.81 844.259 532.388 846.487H-3.05176e-05L130.713 715.774C137.725 724.556 150.8 738.646 171.444 749.689C190.81 760.044 208.603 763.288 219.515 764.435H409.277C413.537 763.878 417.076 760.831 418.255 756.735C419.468 752.507 417.928 747.887 414.421 745.2C304.713 620.254 195.004 495.309 85.3288 370.363Z" fill="white"/>
</svg>
