<svg width="116" height="120" viewBox="0 0 116 120" fill="none" xmlns="http://www.w3.org/2000/svg">
<g clip-path="url(#clip0_6_1227)">
<path d="M115 58.5212V14.7366C115 14.0612 114.145 13.7798 113.69 14.2863L65.2639 74.054C64.8651 74.5043 65.2069 75.2359 65.8336 75.2359H100.814C101.783 75.2359 102.637 74.7857 103.207 74.054L114.259 60.4347C114.715 59.9282 115 59.2528 115 58.5212ZM1.74063 60.4909L38.0885 105.401C38.6582 106.133 39.5697 106.527 40.5382 106.527H75.5187C76.1454 106.527 76.4873 105.851 76.0885 105.401L2.31034 14.3426C1.85457 13.8361 1 14.1175 1 14.7928V58.5775C1.05697 59.2528 1.28486 59.9282 1.74063 60.4909Z" fill="#FA4454"/>
</g>
<defs>
<clipPath id="clip0_6_1227">
<rect width="114" height="92.5217" fill="white" transform="translate(1 14)"/>
</clipPath>
</defs>
</svg>
