<svg width="35" height="40" viewBox="0 0 35 40" fill="none" xmlns="http://www.w3.org/2000/svg">
<path d="M17.4699 34.9366C14.7528 34.9449 12.0722 34.3117 9.64599 33.0885C9.72151 32.8084 9.82055 32.5352 9.94203 32.2718C10.0411 32.0768 10.1801 31.9048 10.3499 31.767L10.3577 31.7591C10.5558 31.6143 10.7044 31.4117 10.783 31.1792C10.9245 30.8135 11.0905 30.4578 11.2799 30.1145C11.8023 29.3392 12.0427 28.4081 11.9611 27.4768C11.96 27.4599 11.9633 27.4429 11.9706 27.4276C11.978 27.4123 11.9891 27.3992 12.003 27.3894C12.0159 27.3787 12.0263 27.3654 12.0337 27.3503C12.0411 27.3353 12.0452 27.3188 12.0458 27.3021L12.0781 27.2567L12.1166 27.2008C12.5069 26.654 12.9113 26.0881 13.3112 25.454C13.4852 25.1911 13.6265 24.9081 13.7322 24.6111C13.8287 24.443 13.891 24.2575 13.9155 24.0652C13.9296 23.967 13.95 23.8699 13.9767 23.7744C14.1968 23.287 14.4474 22.7857 14.6692 22.342C14.891 21.8983 15.1521 21.3742 15.4054 20.8275C15.4316 20.8711 15.456 20.9148 15.4814 20.962L15.4997 20.9969C15.7696 21.4764 16.0237 21.928 16.5424 21.928C16.5842 21.9276 16.6259 21.925 16.6673 21.9201C16.7188 21.9201 16.7695 22.0144 16.8184 22.1044C16.846 22.1594 16.88 22.211 16.9197 22.2581C17.021 22.4118 17.1206 22.5612 17.2166 22.7079L17.2585 22.7717L17.283 22.8101C17.6367 23.3508 17.9712 23.8582 18.3528 24.3648C18.5047 24.5159 18.8907 24.8696 19.1946 24.8696C19.4514 24.9049 19.6923 25.0141 19.888 25.1841C19.9545 25.2855 19.995 25.4018 20.0059 25.5225C20.0169 25.6433 19.998 25.7649 19.9509 25.8767C19.9131 26.0782 19.8596 26.2765 19.7911 26.4697C19.6875 26.7375 19.6285 27.0205 19.6164 27.3073C19.6391 28.1402 19.7391 28.9691 19.9151 29.7835L19.9544 29.9975C19.9955 30.2473 20.0583 30.4971 20.1186 30.7407V30.7556C20.1806 31.0054 20.2452 31.2604 20.2871 31.512C20.4028 32.2511 20.3316 33.0075 20.0802 33.7121L20.0749 33.7322C19.9963 34.0265 19.916 34.3314 19.8662 34.6301C19.8525 34.6772 19.8411 34.725 19.8322 34.7733C19.0492 34.8803 18.2601 34.9348 17.4699 34.9366V34.9366ZM23.4511 33.8885C23.1323 33.6017 22.8802 33.2485 22.7126 32.8537C22.545 32.459 22.4659 32.0323 22.4809 31.6037L22.5237 31.3897L22.7324 30.3416C22.8028 30.0102 22.8321 29.6714 22.8197 29.3328C22.8197 29.1284 22.8101 28.9328 22.8005 28.7476C22.7703 28.409 22.7767 28.0682 22.8197 27.731C22.8424 27.3973 22.8835 27.0698 22.9175 26.7781C23.0992 25.8673 23.0657 24.9267 22.8197 24.0312C22.7202 23.7585 22.5929 23.4969 22.4398 23.2503C22.3306 23.0687 22.2332 22.8802 22.1481 22.6861C21.5956 21.0261 20.7401 19.4829 19.6252 18.1347C19.4569 17.8545 19.36 17.5371 19.3431 17.2107C19.3265 17.0962 19.3117 16.9809 19.289 16.8735C19.289 16.7923 19.6182 16.6211 19.709 16.6211C19.8195 16.6831 19.9431 16.7181 20.0697 16.7233C20.3806 16.7233 20.5063 16.4377 20.55 16.1992C20.7168 14.9503 20.8006 13.7842 20.8862 12.4977C20.8888 12.3989 20.8671 12.3011 20.8231 12.2126C20.7791 12.1242 20.7141 12.0478 20.6338 11.9903C20.5476 11.9673 20.4669 11.9271 20.3965 11.8722C20.3261 11.8172 20.2675 11.7487 20.2243 11.6706C20.1732 11.4443 20.2127 11.207 20.3343 11.0094L20.3448 10.9858C20.357 10.957 20.3692 10.9264 20.3806 10.8985C20.6653 11.0234 20.9404 11.1605 21.2067 11.2994C21.6444 11.5367 22.0992 11.7411 22.5673 11.9108C22.9212 12.0428 23.2931 12.1202 23.6703 12.1405C23.8091 12.1429 23.9471 12.1195 24.0773 12.0715C24.4622 11.9358 24.8047 11.7012 25.0705 11.3914C25.3362 11.0816 25.5159 10.7074 25.5916 10.3063C25.6745 9.80846 25.7601 9.29751 26.4326 9.12894L26.3452 8.85382L26.3138 8.75861C26.2701 8.62993 26.227 8.50125 26.1845 8.37256C26.1244 8.10217 26.1256 7.82176 26.1878 7.55185C26.2501 7.28195 26.3719 7.02938 26.5443 6.81264C26.6964 6.61617 26.891 6.45667 27.1135 6.3461C27.3359 6.23553 27.5805 6.17675 27.829 6.17418C27.8683 6.17418 27.9076 6.17418 27.9469 6.18116C28.8149 6.15761 29.6798 6.0662 30.5336 5.90778H30.558C32.4422 8.04 33.777 10.6003 34.4464 13.366C35.1158 16.1317 35.0995 19.0191 34.3989 21.7771C33.6983 24.5351 32.3347 27.0801 30.4265 29.1909C28.5184 31.3017 26.1235 32.9143 23.4502 33.8885H23.4511ZM7.70464 31.9539C4.60204 29.8626 2.25289 26.8302 1.00316 23.3031C-0.24657 19.7761 -0.330834 15.9409 0.762779 12.3624C1.85639 8.78386 4.07008 5.65113 7.07783 3.42555C10.0856 1.19996 13.7284 -0.000831026 17.4699 4.31499e-07C17.5572 4.31499e-07 17.6445 4.31499e-07 17.7319 4.31499e-07C17.0428 0.263187 16.4799 0.77915 16.1578 1.44283C15.8358 2.10651 15.7788 2.86801 15.9984 3.57227C16.043 3.70405 16.0493 3.84578 16.0167 3.98103V3.99151C16.0074 4.04785 16.0019 4.10475 16.0001 4.16183C15.8464 4.06991 15.6744 4.01268 15.4962 3.99413C15.3373 3.92425 15.1637 3.89427 14.9906 3.90679C14.607 3.93253 14.2341 4.04417 13.8994 4.23344C13.5647 4.42272 13.2769 4.6848 13.0571 5.00031C12.2546 6.15283 11.9237 7.56888 12.1323 8.95775C12.1375 9.01103 12.1419 9.06169 12.1471 9.1106L12.1524 9.16912C12.1864 9.51849 12.2039 9.68793 12.1209 9.78051C12.038 9.87309 11.8083 9.88183 11.3708 9.88183C10.8686 9.88183 10.6983 10.0521 10.6983 10.5552C10.6884 11.1347 10.6409 11.713 10.556 12.2863L10.5306 12.4933L10.5123 12.6086L10.5001 12.696C10.3569 13.5965 10.3542 13.6122 11.4555 13.9266C11.2543 13.9916 11.0755 14.112 10.9397 14.2741C10.8039 14.4362 10.7166 14.6333 10.6878 14.8428C10.6474 14.9902 10.5948 15.1339 10.5306 15.2725C10.5717 15.6044 10.6127 15.9136 10.6546 16.2228L10.6625 16.2875C10.7027 16.5844 10.742 16.8875 10.7821 17.2063C10.7846 17.2651 10.7922 17.3235 10.8049 17.381V17.3906C10.8494 17.6247 10.9044 17.9146 10.4442 18.05C10.3569 18.05 10.2765 18.312 10.2765 18.4684C10.2765 18.7671 10.2983 19.0798 10.3184 19.3575C10.3385 19.6353 10.3603 19.9444 10.3603 20.2362C10.3647 20.3755 10.3781 20.5144 10.4005 20.6519C10.425 20.7931 10.4396 20.9358 10.4442 21.079L10.1918 24.3631C10.1858 24.5966 10.1283 24.826 10.0233 25.0347C9.89643 25.3283 9.74234 25.6093 9.56302 25.8741C9.49316 25.9832 9.42155 26.0942 9.35081 26.2138C9.04155 26.7757 8.76541 27.3552 8.52379 27.9493L8.50982 27.9807C8.35828 28.3076 8.23782 28.648 8.15002 28.9974V29.0096C8.10548 29.1677 8.05833 29.3337 8.00418 29.4953C7.95091 29.7835 7.90725 30.0385 7.86358 30.3075L7.85659 30.3451C7.82253 30.532 7.78848 30.7224 7.75267 30.9277C7.71811 31.1747 7.70409 31.4242 7.71075 31.6735C7.71075 31.7679 7.71075 31.8596 7.71075 31.9487L7.70464 31.9539ZM23.7428 8.62236C23.6354 8.44069 23.5384 8.26775 23.4607 8.12713L23.452 8.11403C23.3437 7.92013 23.2485 7.75069 23.1542 7.61095C23.2599 7.47644 23.3489 7.35591 23.438 7.23014C23.5901 6.99217 23.7783 6.7794 23.996 6.59953C24.1402 6.53016 24.2966 6.48952 24.4563 6.47987C24.502 6.47595 24.5476 6.48867 24.5847 6.51568C24.6708 6.58402 24.7332 6.67773 24.7632 6.78354C24.7931 6.88935 24.789 7.00189 24.7515 7.10524C24.609 7.37096 24.4436 7.62375 24.2572 7.86074L24.2519 7.8686C24.0677 8.10845 23.8983 8.35929 23.7445 8.61974L23.7428 8.62236ZM20.7334 4.7444C20.556 4.74056 20.3799 4.71385 20.2094 4.66491L20.2531 4.48062C20.3256 4.16619 20.4068 3.81159 20.5456 3.74084C21.2932 3.49279 21.3054 2.9207 21.2181 2.39229V2.3687C21.1369 1.55119 21.0434 0.621872 20.0435 0.372076C19.8924 0.318593 19.7443 0.257075 19.5999 0.187785L19.5719 0.174684C19.5291 0.156342 19.4846 0.136253 19.4409 0.115291L19.4217 0.109177C23.0939 0.513459 26.5408 2.08092 29.2594 4.58281H23.4913C23.3015 4.59498 23.1129 4.54567 22.9533 4.44219C22.7041 4.29597 22.4283 4.20067 22.142 4.16183C21.9073 4.24839 21.6817 4.35811 21.4687 4.48936L21.4556 4.49722C21.2457 4.65134 20.9937 4.73759 20.7334 4.7444V4.7444Z" fill="white"/>
<path d="M3.6626 38.8857L0.701721 36.8421H2.60984L4.29238 38.0195L6.00781 36.8421H7.84543L4.88455 38.8857V40H3.6626V38.8857Z" fill="white"/>
<path d="M8.46137 40C8.24204 40 8.07441 39.9444 7.95849 39.8331C7.84256 39.7218 7.78459 39.5624 7.78459 39.3549V37.4872C7.78459 37.2797 7.84256 37.1203 7.95849 37.009C8.07441 36.8977 8.24204 36.8421 8.46137 36.8421H13.0531C13.2724 36.8421 13.4385 36.8977 13.5513 37.009C13.6672 37.1203 13.7252 37.2797 13.7252 37.4872V39.3549C13.7252 39.5624 13.6672 39.7218 13.5513 39.8331C13.4385 39.9444 13.2724 40 13.0531 40H8.46137ZM12.5032 38.9534V37.8887H9.00654V38.9534H12.5032Z" fill="white"/>
<path d="M19.9738 36.8421V39.3549C19.9738 39.5624 19.9159 39.7218 19.8 39.8331C19.6872 39.9444 19.5211 40 19.3018 40H14.8182C14.602 40 14.4359 39.9444 14.32 39.8331C14.204 39.7218 14.1461 39.5624 14.1461 39.3549V36.8421H15.368V38.9489H18.7519V36.8421H19.9738Z" fill="white"/>
<path d="M20.3077 36.8421H26.2341V37.8932H23.8842V40H22.6623V37.8932H20.3077V36.8421Z" fill="white"/>
<path d="M26.5657 36.8421H27.7876V37.8932H31.0587V36.8421H32.2807V40H31.0587V38.9489H27.7876V40H26.5657V36.8421Z" fill="white"/>
</svg>
