<svg width="37" height="30" viewBox="0 0 37 30" fill="none" xmlns="http://www.w3.org/2000/svg">
<g clip-path="url(#clip0_7_1335)">
<path d="M37 14.4357V0.238661C37 0.0196828 36.7226 -0.0715581 36.5747 0.0926755L20.8576 19.4722C20.7281 19.6182 20.8391 19.8555 21.0425 19.8555H32.3958C32.7101 19.8555 32.9875 19.7095 33.1724 19.4722L36.7596 15.0562C36.9075 14.8919 37 14.673 37 14.4357ZM0.24038 15.0744L12.0375 29.6365C12.2224 29.8737 12.5182 30.0014 12.8326 30.0014H24.1859C24.3893 30.0014 24.5002 29.7825 24.3708 29.6365L0.425287 0.110924C0.277361 -0.0533099 0 0.037931 0 0.256909V14.454C0.0184908 14.673 0.0924538 14.8919 0.24038 15.0744Z" fill="white"/>
</g>
<defs>
<clipPath id="clip0_7_1335">
<rect width="37" height="30" fill="white"/>
</clipPath>
</defs>
</svg>
