<svg width="35" height="35" viewBox="0 0 35 35" fill="none" xmlns="http://www.w3.org/2000/svg">
<path d="M17.5015 34.9999C14.7796 35.0082 12.0941 34.3739 9.66346 33.1484C9.73912 32.8679 9.83834 32.5942 9.96004 32.3303C10.0593 32.1349 10.1985 31.9626 10.3686 31.8245L10.3765 31.8167C10.575 31.6715 10.7238 31.4686 10.8026 31.2357C10.9443 30.8693 11.1106 30.513 11.3004 30.1691C11.8237 29.3924 12.0645 28.4596 11.9828 27.5266C11.9817 27.5096 11.9849 27.4926 11.9923 27.4773C11.9997 27.462 12.0108 27.4488 12.0248 27.4391C12.0376 27.4283 12.0481 27.4149 12.0555 27.3999C12.0629 27.3848 12.067 27.3683 12.0676 27.3516L12.1 27.3061L12.1385 27.2501C12.5296 26.7023 12.9346 26.1353 13.3353 25.5001C13.5096 25.2367 13.6512 24.9532 13.757 24.6557C13.8538 24.4873 13.9162 24.3015 13.9408 24.1088C13.9548 24.0105 13.9752 23.9131 14.002 23.8174C14.2225 23.3292 14.4736 22.8269 14.6958 22.3824C14.918 21.9379 15.1796 21.413 15.4333 20.8652C15.4596 20.909 15.484 20.9527 15.5094 21L15.5278 21.035C15.7981 21.5153 16.0527 21.9677 16.5724 21.9677C16.6142 21.9674 16.656 21.9647 16.6975 21.9598C16.7491 21.9598 16.7999 22.0543 16.8489 22.1444C16.8765 22.1996 16.9106 22.2513 16.9504 22.2984C17.0518 22.4524 17.1516 22.6021 17.2478 22.7491L17.2898 22.8129L17.3143 22.8514C17.6686 23.3931 18.0037 23.9014 18.386 24.4089C18.5383 24.5603 18.925 24.9147 19.2294 24.9147C19.4866 24.95 19.728 25.0595 19.9241 25.2297C19.9906 25.3313 20.0312 25.4478 20.0422 25.5688C20.0532 25.6898 20.0342 25.8116 19.9871 25.9236C19.9491 26.1254 19.8956 26.3241 19.827 26.5177C19.7232 26.786 19.6641 27.0694 19.652 27.3568C19.6747 28.1912 19.7749 29.0216 19.9512 29.8374L19.9906 30.0518C20.0317 30.3021 20.0947 30.5523 20.155 30.7964V30.8113C20.2172 31.0616 20.2819 31.3171 20.3239 31.5691C20.4397 32.3096 20.3685 33.0673 20.1165 33.7732L20.1113 33.7933C20.0326 34.0882 19.9521 34.3935 19.9022 34.6928C19.8884 34.74 19.877 34.7879 19.8681 34.8363C19.0838 34.9435 18.2931 34.9981 17.5015 34.9999V34.9999ZM23.4936 33.9499C23.1742 33.6626 22.9217 33.3087 22.7538 32.9132C22.5858 32.5178 22.5066 32.0903 22.5216 31.6609L22.5645 31.4466L22.7736 30.3966C22.8441 30.0646 22.8735 29.7251 22.8611 29.3859C22.8611 29.1812 22.8514 28.9852 22.8418 28.7997C22.8115 28.4605 22.818 28.119 22.8611 27.7812C22.8838 27.4469 22.9249 27.1188 22.959 26.8266C23.141 25.9142 23.1075 24.9718 22.8611 24.0747C22.7613 23.8016 22.6338 23.5395 22.4805 23.2924C22.3711 23.1105 22.2735 22.9217 22.1883 22.7272C21.6347 21.0642 20.7777 19.5182 19.6607 18.1676C19.4921 17.8868 19.3951 17.5689 19.3781 17.2418C19.3615 17.1272 19.3467 17.0117 19.3239 16.9041C19.3239 16.8227 19.6537 16.6512 19.7447 16.6512C19.8554 16.7133 19.9792 16.7484 20.106 16.7536C20.4175 16.7536 20.5435 16.4675 20.5872 16.2286C20.7543 14.9773 20.8383 13.8092 20.9241 12.5203C20.9266 12.4214 20.9049 12.3233 20.8608 12.2347C20.8167 12.1461 20.7516 12.0696 20.6712 12.012C20.5848 11.9889 20.5039 11.9487 20.4334 11.8937C20.3629 11.8386 20.3042 11.77 20.2609 11.6917C20.2097 11.465 20.2493 11.2273 20.3711 11.0293L20.3816 11.0057C20.3939 10.9769 20.4061 10.9462 20.4175 10.9182C20.7027 11.0433 20.9783 11.1807 21.2451 11.3198C21.6836 11.5576 22.1393 11.7623 22.6082 11.9323C22.9628 12.0646 23.3353 12.1422 23.7132 12.1625C23.8522 12.1649 23.9905 12.1415 24.1209 12.0933C24.5065 11.9574 24.8496 11.7224 25.1159 11.4121C25.3821 11.1017 25.5622 10.7268 25.6379 10.325C25.721 9.82623 25.8068 9.31435 26.4804 9.14548L26.3929 8.86986L26.3615 8.77448C26.3177 8.64556 26.2745 8.51665 26.232 8.38773C26.1718 8.11685 26.1729 7.83593 26.2353 7.56553C26.2976 7.29514 26.4197 7.04212 26.5924 6.82498C26.7448 6.62816 26.9397 6.46837 27.1626 6.3576C27.3854 6.24683 27.6305 6.18794 27.8794 6.18536C27.9187 6.18536 27.9581 6.18536 27.9975 6.19236C28.8671 6.16876 29.7335 6.07719 30.5889 5.91849H30.6134C32.501 8.05456 33.8382 10.6195 34.5088 13.3902C35.1794 16.161 35.1631 19.0536 34.4612 21.8166C33.7594 24.5795 32.3932 27.1292 30.4816 29.2438C28.57 31.3584 26.1708 32.974 23.4927 33.9499H23.4936ZM7.7186 32.0118C4.61038 29.9167 2.25698 26.8788 1.00498 23.3454C-0.247017 19.8119 -0.331434 15.9698 0.76416 12.3848C1.85975 8.79977 4.07745 5.66137 7.09065 3.43175C10.1039 1.20214 13.7533 -0.000832531 17.5015 4.3228e-07C17.589 4.3228e-07 17.6765 4.3228e-07 17.764 4.3228e-07C17.0737 0.263663 16.5098 0.780561 16.1871 1.44545C15.8645 2.11033 15.8073 2.87321 16.0273 3.57874C16.072 3.71076 16.0784 3.85275 16.0457 3.98824V3.99874C16.0364 4.05518 16.0308 4.11218 16.0291 4.16937C15.8751 4.07728 15.7028 4.01995 15.5243 4.00137C15.3651 3.93136 15.1912 3.90132 15.0177 3.91387C14.6334 3.93966 14.2598 4.05149 13.9246 4.24111C13.5893 4.43073 13.3009 4.69328 13.0807 5.00936C12.2768 6.16398 11.9453 7.58259 12.1542 8.97398C12.1595 9.02735 12.1639 9.0781 12.1691 9.1271L12.1744 9.18573C12.2085 9.53573 12.226 9.70548 12.1429 9.79823C12.0598 9.89098 11.8297 9.89973 11.3914 9.89973C10.8883 9.89973 10.7177 10.0704 10.7177 10.5744C10.7078 11.1549 10.6601 11.7342 10.5751 12.3086L10.5497 12.516L10.5313 12.6315L10.5191 12.719C10.3756 13.6211 10.373 13.6368 11.4762 13.9518C11.2746 14.0169 11.0955 14.1376 10.9595 14.3C10.8234 14.4623 10.736 14.6598 10.7072 14.8697C10.6667 15.0173 10.614 15.1613 10.5497 15.3002C10.5908 15.6327 10.632 15.9425 10.6739 16.2522L10.6818 16.317C10.7221 16.6145 10.7614 16.9181 10.8017 17.2375C10.8042 17.2963 10.8118 17.3549 10.8244 17.4125V17.4221C10.869 17.6566 10.9242 17.9471 10.4631 18.0827C10.3756 18.0827 10.2951 18.3452 10.2951 18.5018C10.2951 18.8011 10.317 19.1143 10.3371 19.3926C10.3572 19.6708 10.3791 19.9806 10.3791 20.2728C10.3835 20.4124 10.3969 20.5515 10.4194 20.6893C10.4439 20.8308 10.4585 20.9737 10.4631 21.1172L10.2103 24.4072C10.2043 24.6412 10.1466 24.871 10.0414 25.0801C9.91436 25.3742 9.75999 25.6557 9.58035 25.9209C9.51036 26.0303 9.43861 26.1414 9.36775 26.2613C9.05793 26.8242 8.78129 27.4047 8.53924 27.9999L8.52524 28.0314C8.37342 28.3589 8.25274 28.6999 8.16479 29.0499V29.0622C8.12017 29.2206 8.07292 29.3868 8.01868 29.5487C7.96531 29.8374 7.92157 30.0929 7.87783 30.3624L7.87083 30.4001C7.83671 30.5873 7.80259 30.7781 7.76672 30.9837C7.7321 31.2312 7.71805 31.4811 7.72472 31.7309C7.72472 31.8254 7.72472 31.9173 7.72472 32.0065L7.7186 32.0118ZM23.7858 8.63798C23.6782 8.45598 23.5811 8.28273 23.5032 8.14186L23.4945 8.12873C23.386 7.93448 23.2906 7.76473 23.1961 7.62473C23.302 7.48998 23.3912 7.36923 23.4805 7.24323C23.6328 7.00483 23.8214 6.79168 24.0395 6.61149C24.184 6.54199 24.3406 6.50127 24.5006 6.49161C24.5464 6.48768 24.592 6.50042 24.6292 6.52749C24.7155 6.59595 24.778 6.68983 24.808 6.79583C24.838 6.90183 24.8339 7.01458 24.7963 7.11811C24.6535 7.38432 24.4878 7.63757 24.3011 7.87498L24.2959 7.88286C24.1113 8.12313 23.9416 8.37443 23.7876 8.63536L23.7858 8.63798ZM20.771 4.75299C20.5933 4.74915 20.4168 4.72239 20.246 4.67336L20.2898 4.48874C20.3624 4.17374 20.4438 3.81849 20.5829 3.74762C21.3318 3.49912 21.344 2.92599 21.2565 2.39662V2.37299C21.1752 1.554 21.0815 0.622999 20.0798 0.37275C19.9285 0.319171 19.7801 0.257541 19.6354 0.188125L19.6074 0.175C19.5645 0.156625 19.5199 0.1365 19.4761 0.1155L19.4569 0.109375C23.1358 0.51439 26.5889 2.08469 29.3124 4.59111H23.5338C23.3437 4.60331 23.1547 4.55391 22.9949 4.45024C22.7452 4.30375 22.469 4.20828 22.1821 4.16937C21.947 4.25609 21.721 4.36601 21.5076 4.49749L21.4945 4.50537C21.2842 4.65977 21.0317 4.74617 20.771 4.75299V4.75299Z" fill="white"/>
</svg>
